# xmcd
#
# Track frame offsets:
#	150
#	16735
#	32775
#	56527
#	71925
#	87150
#
# Disc length: 1307 seconds
#
# Revision: 0
# Processed by: cddbd v1.5.1PL0 Copyright (c) Steve Scherf et al.
# Submitted via: dBpowerAMP V4.0
#
DISCID=47051906
DTITLE=Herman Brock JR. - The Devil's Got A Hold Of Me
DYEAR=2000
DGENRE=Blues
TTITLE0=Shuffle Baby
TTITLE1=You Can Love Me Too
TTITLE2=I'm Lookin' For You
TTITLE3=(Oh Lord) The Devil's Got A Hold Of Me
TTITLE4=How Much More Long
TTITLE5=Weekend Lovin'
EXTD=
EXTT0=
EXTT1=
EXTT2=
EXTT3=
EXTT4=
EXTT5=
PLAYORDER=
